<svg xmlns="http://www.w3.org/2000/svg" width="135" height="135" viewBox="0 0 135 135"><defs><mask id="gehkb" width="2" height="2" x="-1" y="-1"><path fill="#fff" d="M5 5h125v125H5z"/><path d="M67.5 5C102.018 5 130 32.982 130 67.5c0 34.517-27.982 62.5-62.5 62.5S5 102.017 5 67.5C5 32.981 32.982 5 67.5 5z"/></mask><filter id="gehka" width="157" height="157" x="-11" y="-11" filterUnits="userSpaceOnUse"><feOffset in="SourceGraphic" result="FeOffset1138Out"/><feGaussianBlur in="FeOffset1138Out" result="FeGaussianBlur1139Out" stdDeviation="2.4 2.4"/></filter></defs><g><g><g><g filter="url(#gehka)"><path fill="none" d="M67.5 5C102.018 5 130 32.982 130 67.5c0 34.517-27.982 62.5-62.5 62.5S5 102.017 5 67.5C5 32.981 32.982 5 67.5 5z" mask="url(&quot;#gehkb&quot;)"/><path fill="#40c7ff" fill-opacity=".32" d="M67.5 5C102.018 5 130 32.982 130 67.5c0 34.517-27.982 62.5-62.5 62.5S5 102.017 5 67.5C5 32.981 32.982 5 67.5 5z"/></g><path fill="#fff" d="M67.5 5C102.018 5 130 32.982 130 67.5c0 34.517-27.982 62.5-62.5 62.5S5 102.017 5 67.5C5 32.981 32.982 5 67.5 5z"/></g><g><path fill="#f26522" d="M46.91 52.264L44.145 48.2l6.414-4.418v-8.097h6.16v3.853l10.99-7.569 1.4-.97 1.374.971 23.786 16.367-2.764 4.065-2.922-2.012v24.594c-.403.386-.807.77-1.219 1.151a94.526 94.526 0 0 1-3.677 3.192v-32.01l-14.608-10.32-14.94 10.335v26.026h-4.895V50.656zm23.174 20.545h-3.346v-2.72c-1.612-.129-3.225-.613-4.22-1.28l-.33-.222 1.048-3.669.605.36c1.225.727 2.69 1.143 4.02 1.143 1.443 0 2.376-.645 2.376-1.642 0-.682-.321-1.43-2.645-2.285-2.532-.922-5.122-2.294-5.122-5.475 0-2.561 1.687-4.504 4.435-5.157v-2.817h3.345v2.605c1.299.098 2.42.402 3.5.944l.407.205-1.05 3.595-.727-.336c-.652-.307-1.747-.819-3.363-.819-1.297 0-2.072.52-2.072 1.392 0 .76.726 1.297 2.99 2.208 3.363 1.269 4.805 2.955 4.805 5.635 0 2.673-1.813 4.745-4.656 5.385zm30.41 15.942c-4.12 4.593-15.476 13.867-31.926 13.867H49.471c-2.64 0-5.23-1.139-6.9-2.066 0 0-.504-.368-.87-.55V103H32V74.782h9.701v2.721a10.146 10.146 0 0 1 5.49-1.627l20.787-.018c5.823.026 10.034 4.023 10.012 9.34-.004.95-.149 1.622-.371 2.183 2.483-.48 5.541-1.75 7.981-4.884 2.713-3.824 5.906-4.628 8.11-4.628 2.605 0 4.929 1.123 6.13 2.084 1.714 1.374 2.882 2.617 3.013 4.215.147 1.788-1.128 3.21-2.36 4.583zm-62.042-7.736v-3.413h-3.391v3.413zm61.022 3.432c-.002-.017-.05-.464-1.748-1.826-.578-.463-2.163-1.34-4.016-1.34-2.053 0-3.86 1.084-5.369 3.223l-.044.061c-4.541 5.862-10.932 6.466-13.47 6.466l-.9.002H57.76a1.7 1.7 0 0 1-1.695-1.705c0-.942.759-1.706 1.695-1.706h15.231c.082-.02 1.606-.139 1.606-2.439.018-3.983-3.32-5.9-6.636-5.914l-20.78.018c-1.464 0-2.91.487-4.063 1.369l-.37.281c-.307.235-.677.34-1.048.335v15.036l.024-.002c.358 0 .712.113 1.01.333.031.025 3.508 2.566 6.737 2.566h19.096c15.09 0 25.593-8.484 29.408-12.74.41-.458 1.502-1.675 1.498-2.018z"/></g></g></g></svg>