<svg xmlns="http://www.w3.org/2000/svg" width="135" height="135" viewBox="0 0 135 135"><defs><mask id="uz2eb" width="2" height="2" x="-1" y="-1"><path fill="#fff" d="M5 5h125v125H5z"/><path d="M67.5 5C102.018 5 130 32.982 130 67.5c0 34.517-27.982 62.5-62.5 62.5S5 102.017 5 67.5C5 32.981 32.982 5 67.5 5z"/></mask><filter id="uz2ea" width="157" height="157" x="-11" y="-11" filterUnits="userSpaceOnUse"><feOffset in="SourceGraphic" result="FeOffset1111Out"/><feGaussianBlur in="FeOffset1111Out" result="FeGaussianBlur1112Out" stdDeviation="2.4 2.4"/></filter></defs><g><g><g><g filter="url(#uz2ea)"><path fill="none" d="M67.5 5C102.018 5 130 32.982 130 67.5c0 34.517-27.982 62.5-62.5 62.5S5 102.017 5 67.5C5 32.981 32.982 5 67.5 5z" mask="url(&quot;#uz2eb&quot;)"/><path fill="#40c7ff" fill-opacity=".32" d="M67.5 5C102.018 5 130 32.982 130 67.5c0 34.517-27.982 62.5-62.5 62.5S5 102.017 5 67.5C5 32.981 32.982 5 67.5 5z"/></g><path fill="#fff" d="M67.5 5C102.018 5 130 32.982 130 67.5c0 34.517-27.982 62.5-62.5 62.5S5 102.017 5 67.5C5 32.981 32.982 5 67.5 5z"/></g><g><path fill="#f26522" d="M41.248 68.061L67.5 44.551l26.254 23.51a1.788 1.788 0 0 0 2.581-.188c.665-.791.58-1.982-.179-2.671L68.701 40.617a1.786 1.786 0 0 0-2.398 0l-9.784 8.76v-3.549c0-2.087-1.641-3.782-3.66-3.782-2.02 0-3.661 1.695-3.661 3.782v10.103l-10.353 9.271a1.94 1.94 0 0 0-.182 2.67c.667.787 1.82.872 2.584.189zm18.931 8.027h14.644V95h10.981c2.016 0 3.66-1.696 3.66-3.783V72.682c0-1.138-.493-2.21-1.344-2.925L69.818 54.252a3.57 3.57 0 0 0-2.318-.859c-.824 0-1.648.288-2.32.86L46.878 69.756a3.815 3.815 0 0 0-1.34 2.925v18.535c0 2.087 1.64 3.783 3.66 3.783h10.981z"/></g></g></g></svg>