<svg xmlns="http://www.w3.org/2000/svg" width="135" height="135" viewBox="0 0 135 135"><defs><mask id="ieybb" width="2" height="2" x="-1" y="-1"><path fill="#fff" d="M5 5h125v125H5z"/><path d="M67.5 5C102.018 5 130 32.982 130 67.5c0 34.517-27.982 62.5-62.5 62.5S5 102.017 5 67.5C5 32.981 32.982 5 67.5 5z"/></mask><filter id="ieyba" width="157" height="157" x="-11" y="-11" filterUnits="userSpaceOnUse"><feOffset in="SourceGraphic" result="FeOffset1165Out"/><feGaussianBlur in="FeOffset1165Out" result="FeGaussianBlur1166Out" stdDeviation="2.4 2.4"/></filter></defs><g><g><g><g filter="url(#ieyba)"><path fill="none" d="M67.5 5C102.018 5 130 32.982 130 67.5c0 34.517-27.982 62.5-62.5 62.5S5 102.017 5 67.5C5 32.981 32.982 5 67.5 5z" mask="url(&quot;#ieybb&quot;)"/><path fill="#40c7ff" fill-opacity=".32" d="M67.5 5C102.018 5 130 32.982 130 67.5c0 34.517-27.982 62.5-62.5 62.5S5 102.017 5 67.5C5 32.981 32.982 5 67.5 5z"/></g><path fill="#fff" d="M67.5 5C102.018 5 130 32.982 130 67.5c0 34.517-27.982 62.5-62.5 62.5S5 102.017 5 67.5C5 32.981 32.982 5 67.5 5z"/></g><g><path fill="#f26522" d="M106.784 79.899v16.47c0 .9-.738 1.63-1.648 1.63H29.864a1.64 1.64 0 0 1-1.648-1.63V79.9c0-.512.243-.994.655-1.302l12.459-9.293v-3.732c0-.512.243-.994.656-1.302l24.522-18.293a1.663 1.663 0 0 1 1.984 0L93.014 64.27c.413.308.656.79.656 1.302v3.732l12.458 9.293c.413.308.656.79.656 1.302zM69.282 86.52h-3.564v8.218h3.564zm21.092 8.218V66.384L67.5 49.32 44.626 66.384v28.355h17.796V84.89c0-.9.738-1.63 1.648-1.63h6.86c.91 0 1.648.73 1.648 1.63v9.848zm-58.862 0h9.818V73.387l-9.818 7.324zm71.976-14.028l-9.818-7.324V94.74h9.818zm-74.94-12.915a1.619 1.619 0 0 1 .323-2.283l37.637-28.075a1.663 1.663 0 0 1 1.984 0l37.636 28.075c.727.542.872 1.564.324 2.283a1.651 1.651 0 0 1-1.317.649c-.346 0-.694-.107-.991-.33L67.5 40.782 30.856 68.116a1.66 1.66 0 0 1-2.308-.32z"/></g><g><g><text dominant-baseline="text-before-edge" style="line-height:26px" fill="#f26522" font-family="'Roboto','Roboto-Bold'" font-size="22" font-style="none" font-weight="700" transform="translate(61 61)"><tspan style="font-kerning:normal">?</tspan></text></g></g></g></g></svg>